<svg xmlns="http://www.w3.org/2000/svg" xmlns:svgjs="http://svgjs.com/svgjs" xmlns:xlink="http://www.w3.org/1999/xlink" style="enable-background:new 0 0 512 512" width="512" height="512" x="0" y="0" version="1.1" viewBox="0 0 74 74" xml:space="preserve"><g><path xmlns="http://www.w3.org/2000/svg" fill="#222" d="m71 45.47a1 1 0 0 1 -1-1v-2.91a1 1 0 0 1 2 0v2.91a1 1 0 0 1 -1 1z" data-original="#000000"/><path xmlns="http://www.w3.org/2000/svg" fill="#222" d="m68 72h-62a4 4 0 0 1 -4-4v-62a4 4 0 0 1 4-4h62a4 4 0 0 1 4 4v28.56a1 1 0 0 1 -2 0v-28.56a2 2 0 0 0 -2-2h-62a2 2 0 0 0 -2 2v62a2 2 0 0 0 2 2h62a2 2 0 0 0 2-2v-6.56a1 1 0 0 1 2 0v6.56a4 4 0 0 1 -4 4z" data-original="#000000"/><path xmlns="http://www.w3.org/2000/svg" fill="#222" d="m71 55.44a1 1 0 0 1 -1-1v-2.97a1 1 0 0 1 2 0v2.97a1 1 0 0 1 -1 1z" data-original="#000000"/><path xmlns="http://www.w3.org/2000/svg" fill="#222" d="m71 20h-68a1 1 0 0 1 0-2h68a1 1 0 0 1 0 2z" data-original="#000000"/><path xmlns="http://www.w3.org/2000/svg" fill="#222" d="m64.771 11.969h-2.709a1 1 0 0 1 0-2h2.709a1 1 0 0 1 0 2z" data-original="#000000"/><path xmlns="http://www.w3.org/2000/svg" fill="#222" d="m55.771 11.969h-2.709a1 1 0 0 1 0-2h2.709a1 1 0 0 1 0 2z" data-original="#000000"/><path xmlns="http://www.w3.org/2000/svg" fill="#222" d="m46.771 11.969h-2.709a1 1 0 0 1 0-2h2.709a1 1 0 0 1 0 2z" data-original="#000000"/><path xmlns="http://www.w3.org/2000/svg" fill="#222" d="m36.9 11.906h-27.421a1 1 0 0 1 0-2h27.421a1 1 0 0 1 0 2z" data-original="#000000"/><path xmlns="http://www.w3.org/2000/svg" fill="#222" d="m30 45.733h-18a1 1 0 0 1 -1-1v-17.733a1 1 0 0 1 1-1h18a1 1 0 0 1 1 1v17.733a1 1 0 0 1 -1 1zm-17-2h16v-15.733h-16z" data-original="#000000"/><path xmlns="http://www.w3.org/2000/svg" fill="#222" d="m62 28.167h-25a1 1 0 0 1 0-2h25a1 1 0 0 1 0 2z" data-original="#000000"/><path xmlns="http://www.w3.org/2000/svg" fill="#222" d="m62 37.039h-25a1 1 0 0 1 0-2h25a1 1 0 0 1 0 2z" data-original="#000000"/><path xmlns="http://www.w3.org/2000/svg" fill="#222" d="m62 45.911h-25a1 1 0 0 1 0-2h25a1 1 0 0 1 0 2z" data-original="#000000"/><path xmlns="http://www.w3.org/2000/svg" fill="#222" d="m62 54.783h-49.5a1 1 0 0 1 0-2h49.5a1 1 0 0 1 0 2z" data-original="#000000"/><path xmlns="http://www.w3.org/2000/svg" fill="#222" d="m62 63.656h-49.5a1 1 0 0 1 0-2h49.5a1 1 0 0 1 0 2z" data-original="#000000"/></g></svg>